<svg width="130" height="28" viewBox="0 0 130 28" fill="none" xmlns="http://www.w3.org/2000/svg">
<path d="M8.94688 19.0156L7.09108 19.7613L9.07592 24.7011L10.8346 19.6763L8.94688 19.0156ZM9.02891 18.7812L7.16084 18.0669L7.15063 18.0936L7.14119 18.1205L9.02891 18.7812ZM13.4117 7.32031V5.32031H12.0353L11.5437 6.60594L13.4117 7.32031ZM14.1148 7.32031L15.9837 8.03255L17.0174 5.32031H14.1148V7.32031ZM8.44297 22.2031L10.2999 22.9459L10.306 22.9307L10.3119 22.9154L8.44297 22.2031ZM8.16172 22.9062L10.0105 23.6692L10.0146 23.6592L10.0187 23.649L8.16172 22.9062ZM4.20078 24.9922L2.20117 25.0314L2.22487 26.2403L3.30636 26.781L4.20078 24.9922ZM4.18906 24.3945L4.73056 22.4692L2.13662 21.7397L2.18945 24.4337L4.18906 24.3945ZM6.69688 23.9141L5.37987 22.4089L5.37232 22.4155L5.36485 22.4222L6.69688 23.9141ZM7.8336 22.0273L5.95708 21.3354L5.95548 21.3398L7.8336 22.0273ZM8.60703 19.9297L10.4835 20.6216L10.7496 19.9L10.4636 19.186L8.60703 19.9297ZM3.55625 7.32031V5.32031H0.600656L1.69966 8.06399L3.55625 7.32031ZM4.24766 7.32031L6.10345 6.57465L5.59946 5.32031H4.24766V7.32031ZM10.8346 19.6763L10.9166 19.442L7.14119 18.1205L7.05916 18.3549L10.8346 19.6763ZM10.897 19.4956L15.2798 8.03469L11.5437 6.60594L7.16084 18.0669L10.897 19.4956ZM13.4117 9.32031H14.1148V5.32031H13.4117V9.32031ZM12.246 6.60808L6.57409 21.4909L10.3119 22.9154L15.9837 8.03255L12.246 6.60808ZM6.58602 21.4603L6.30477 22.1635L10.0187 23.649L10.2999 22.9459L6.58602 21.4603ZM6.31297 22.1433C6.10987 22.6354 5.90278 22.8544 5.76692 22.954C5.64835 23.0408 5.4722 23.1211 5.13828 23.1211V27.1211C6.21062 27.1211 7.2415 26.8322 8.13074 26.1808C9.00269 25.542 9.6042 24.6536 10.0105 23.6692L6.31297 22.1433ZM5.13828 23.1211C5.05589 23.1211 4.98929 23.1191 4.93687 23.1162C4.88386 23.1132 4.85154 23.1096 4.8365 23.1075C4.82013 23.1053 4.83417 23.1062 4.87041 23.1159C4.88945 23.1209 4.91823 23.1293 4.9546 23.1426C4.99076 23.1557 5.03888 23.1752 5.09521 23.2033L3.30636 26.781C3.94186 27.0988 4.6876 27.1211 5.13828 27.1211V23.1211ZM6.2004 24.953L6.18868 24.3553L2.18945 24.4337L2.20117 25.0314L6.2004 24.953ZM3.64757 26.3198C4.1092 26.4497 4.58199 26.5 5.04453 26.5V22.5C4.86646 22.5 4.76893 22.48 4.73056 22.4692L3.64757 26.3198ZM5.04453 26.5C6.13036 26.5 7.1761 26.1674 8.02891 25.4059L5.36485 22.4222C5.34265 22.442 5.28683 22.5 5.04453 22.5V26.5ZM8.01389 25.4192C8.81247 24.7205 9.33843 23.7346 9.71171 22.7149L5.95548 21.3398C5.68814 22.0701 5.45628 22.342 5.37987 22.4089L8.01389 25.4192ZM9.7101 22.7192L10.4835 20.6216L6.73053 19.2378L5.95709 21.3354L9.7101 22.7192ZM10.4636 19.186L5.41285 6.57664L1.69966 8.06399L6.75044 20.6734L10.4636 19.186ZM3.55625 9.32031H4.24766V5.32031H3.55625V9.32031ZM2.39186 8.06598L7.09108 19.7613L10.8027 18.27L6.10345 6.57465L2.39186 8.06598ZM26.9328 20L25.0119 20.5568L25.4302 22H26.9328V20ZM26.6984 17.6797H28.6984V10.6136L24.9951 16.6315L26.6984 17.6797ZM18.8703 19.2852L17.5315 20.7709L17.54 20.7786L17.5487 20.7863L18.8703 19.2852ZM19.3742 14L20.4808 15.666L20.4836 15.6641L19.3742 14ZM23.5695 12.9219V10.9219H23.5606L23.5516 10.922L23.5695 12.9219ZM26.6984 12.9219V14.9219H28.6984V12.9219H26.6984ZM25.6906 8.59766L24.3674 10.0974L24.3761 10.105L25.6906 8.59766ZM18.7766 10.8125L18.7025 12.8111L20.7766 12.8879V10.8125H18.7766ZM18.1438 10.7891H16.1438V12.7164L18.0697 12.7877L18.1438 10.7891ZM26.0891 8.11719L24.7899 9.63781L24.7985 9.64508L26.0891 8.11719ZM27.3313 11H29.3313V10.9811L29.3309 10.9623L27.3313 11ZM27.6594 19.8945H29.6594V19.4762L29.4917 19.0929L27.6594 19.8945ZM27.6594 20V22H29.6594V20H27.6594ZM24.7648 18.8164L23.7132 17.1152L23.7062 17.1195L24.7648 18.8164ZM26.6984 16.5781L28.5242 17.3945L28.6984 17.0049V16.5781H26.6984ZM26.6984 13.5664H28.6984V11.5664H26.6984V13.5664ZM19.6086 14.6445L18.4107 13.043L18.4086 13.0445L19.6086 14.6445ZM28.8537 19.4432C28.7759 19.1747 28.6984 18.6233 28.6984 17.6797H24.6984C24.6984 18.7517 24.7772 19.7472 25.0119 20.5568L28.8537 19.4432ZM24.9951 16.6315C24.691 17.1257 24.2836 17.5051 23.734 17.7873L25.5613 21.3455C26.7461 20.7371 27.7059 19.8587 28.4018 18.7279L24.9951 16.6315ZM23.734 17.7873C23.1825 18.0705 22.5215 18.2344 21.7063 18.2344V22.2344C23.0785 22.2344 24.3785 21.9529 25.5613 21.3455L23.734 17.7873ZM21.7063 18.2344C20.9073 18.2344 20.4684 18.0275 20.1919 17.7841L17.5487 20.7863C18.7097 21.8085 20.1614 22.2344 21.7063 22.2344V18.2344ZM20.2091 17.7994C19.9509 17.5667 19.8039 17.2903 19.8039 16.7891H15.8039C15.8039 18.3347 16.3678 19.7224 17.5315 20.7709L20.2091 17.7994ZM19.8039 16.7891C19.8039 16.3559 19.9392 16.0257 20.4807 15.666L18.2677 12.334C16.7155 13.3649 15.8039 14.8941 15.8039 16.7891H19.8039ZM20.4836 15.6641C21.1148 15.2433 22.0931 14.9352 23.5875 14.9218L23.5516 10.922C21.5615 10.9398 19.743 11.3504 18.2648 12.3359L20.4836 15.6641ZM23.5695 14.9219H26.6984V10.9219H23.5695V14.9219ZM28.6984 12.9219V11.0703H24.6984V12.9219H28.6984ZM28.6984 11.0703C28.6984 9.55154 28.1965 8.12931 27.0052 7.09033L24.3761 10.105C24.5285 10.2379 24.6984 10.4641 24.6984 11.0703H28.6984ZM27.0139 7.09798C25.8605 6.08034 24.3654 5.71875 22.8313 5.71875V9.71875C23.7815 9.71875 24.1926 9.9431 24.3674 10.0973L27.0139 7.09798ZM22.8313 5.71875C21.3193 5.71875 19.9034 6.11362 18.7188 7.02294L21.1546 10.1958C21.517 9.91763 22.0307 9.71875 22.8313 9.71875V5.71875ZM18.7188 7.02294C17.5169 7.94565 16.7766 9.23877 16.7766 10.8125H20.7766C20.7766 10.6362 20.8097 10.4606 21.1546 10.1958L18.7188 7.02294ZM18.8506 8.81387L18.2178 8.79043L18.0697 12.7877L18.7025 12.8111L18.8506 8.81387ZM20.1438 10.7891C20.1438 10.448 20.2519 10.1229 20.7459 9.73106L18.2603 6.59707C16.9418 7.64277 16.1438 9.06763 16.1438 10.7891H20.1438ZM20.7459 9.73106C21.2515 9.33007 21.906 9.08594 22.8313 9.08594V5.08594C21.1315 5.08594 19.5672 5.56056 18.2603 6.59707L20.7459 9.73106ZM22.8313 9.08594C23.864 9.08594 24.4423 9.34082 24.7899 9.63778L27.3882 6.59659C26.1264 5.51855 24.5329 5.08594 22.8313 5.08594V9.08594ZM24.7985 9.64508C25.0834 9.88575 25.3169 10.2576 25.3316 11.0377L29.3309 10.9623C29.2987 9.25805 28.7041 7.708 27.3796 6.58929L24.7985 9.64508ZM25.3313 11V17.0586H29.3313V11H25.3313ZM25.3313 17.0586C25.3313 17.7992 25.36 18.4655 25.4265 19.0404C25.4898 19.587 25.6002 20.1777 25.8271 20.6962L29.4917 19.0929C29.4998 19.1114 29.4462 18.9795 29.4 18.5807C29.3572 18.2103 29.3313 17.7087 29.3313 17.0586H25.3313ZM25.6594 19.8945V20H29.6594V19.8945H25.6594ZM27.6594 18H26.9328V22H27.6594V18ZM21.7063 21.6133C23.1986 21.6133 24.6002 21.2764 25.8234 20.5133L23.7062 17.1195C23.2264 17.4189 22.5889 17.6133 21.7063 17.6133V21.6133ZM25.8165 20.5176C27.0315 19.7665 27.9382 18.7051 28.5242 17.3945L24.8727 15.7617C24.5993 16.3731 24.2169 16.8038 23.7132 17.1152L25.8165 20.5176ZM28.6984 16.5781V13.5664H24.6984V16.5781H28.6984ZM26.6984 11.5664H23.7688V15.5664H26.6984V11.5664ZM23.7688 11.5664C21.7333 11.5664 19.8539 11.9635 18.4107 13.043L20.8065 16.2461C21.2852 15.888 22.1792 15.5664 23.7688 15.5664V11.5664ZM18.4086 13.0445C17.1909 13.9578 16.4367 15.2519 16.4367 16.8359H20.4367C20.4367 16.6699 20.4638 16.5031 20.8086 16.2445L18.4086 13.0445ZM16.4367 16.8359C16.4367 18.2246 17.0242 19.4178 18.0468 20.311L20.6782 17.2984C20.4664 17.1134 20.4367 16.9941 20.4367 16.8359H16.4367ZM18.0468 20.311C19.0838 21.2167 20.356 21.6133 21.7063 21.6133V17.6133C21.1659 17.6133 20.8756 17.4708 20.6782 17.2984L18.0468 20.311ZM34.4539 10.2734H32.4539L36.2975 11.0489L34.4539 10.2734ZM41.9773 8.24609L40.4523 9.54005L40.4594 9.54833L40.4665 9.55654L41.9773 8.24609ZM42.9852 11.7266H44.9852L44.9851 11.7165L42.9852 11.7266ZM42.9852 20V22H44.9852V20H42.9852ZM42.3523 20H40.3523V22H42.3523V20ZM42.3523 11.7031H44.3524L44.3523 11.6916L42.3523 11.7031ZM41.5203 8.69141L39.9838 9.9718L39.9914 9.98081L41.5203 8.69141ZM36.0711 8.87891L37.464 10.3141L37.4643 10.3139L36.0711 8.87891ZM34.4539 11.8789L32.5045 11.4319L32.4539 11.6525V11.8789H34.4539ZM34.4539 20V22H36.4539V20H34.4539ZM33.8211 20H31.8211V22H33.8211V20ZM33.8211 7.32031V5.32031H31.8211V7.32031H33.8211ZM34.4539 7.32031H36.4539V5.32031H34.4539V7.32031ZM36.2975 11.0489C36.5793 10.3789 36.9634 9.90988 37.4385 9.57314L35.1256 6.30967C33.9913 7.11355 33.1567 8.19924 32.6104 9.49798L36.2975 11.0489ZM37.4385 9.57314C37.9088 9.23985 38.3961 9.08594 38.9539 9.08594V5.08594C37.5586 5.08594 36.2647 5.50234 35.1256 6.30967L37.4385 9.57314ZM38.9539 9.08594C39.9376 9.08594 40.2945 9.354 40.4523 9.54005L43.5024 6.95214C42.3477 5.59131 40.689 5.08594 38.9539 5.08594V9.08594ZM40.4665 9.55654C40.6876 9.81149 40.9785 10.4153 40.9852 11.7366L44.9851 11.7165C44.9761 9.92842 44.5952 8.21195 43.4882 6.93565L40.4665 9.55654ZM40.9852 11.7266V20H44.9852V11.7266H40.9852ZM42.9852 18H42.3523V22H42.9852V18ZM44.3523 20V11.7031H40.3523V20H44.3523ZM44.3523 11.6916C44.3433 10.1286 44.0329 8.56838 43.0492 7.402L39.9914 9.98081C40.1015 10.1113 40.3457 10.5589 40.3524 11.7146L44.3523 11.6916ZM43.0568 7.41104C41.9979 6.14042 40.4571 5.70703 38.9188 5.70703V9.70703C39.7554 9.70703 39.949 9.92989 39.9839 9.97178L43.0568 7.41104ZM38.9188 5.70703C37.2902 5.70703 35.8453 6.31061 34.6779 7.44395L37.4643 10.3139C37.9063 9.88471 38.3598 9.70703 38.9188 9.70703V5.70703ZM34.6781 7.44374C33.5686 8.52061 32.8602 9.88075 32.5045 11.4319L36.4033 12.3259C36.6101 11.4239 36.9798 10.7841 37.464 10.3141L34.6781 7.44374ZM32.4539 11.8789V20H36.4539V11.8789H32.4539ZM34.4539 18H33.8211V22H34.4539V18ZM35.8211 20V7.32031H31.8211V20H35.8211ZM33.8211 9.32031H34.4539V5.32031H33.8211V9.32031ZM32.4539 7.32031V10.2734H36.4539V7.32031H32.4539ZM57.5609 20L55.64 20.5568L56.0583 22H57.5609V20ZM57.3266 17.6797H59.3266V10.6136L55.6232 16.6315L57.3266 17.6797ZM49.4984 19.2852L48.1596 20.7709L48.1682 20.7786L48.1768 20.7863L49.4984 19.2852ZM50.0023 14L51.1089 15.666L51.1117 15.6641L50.0023 14ZM54.1977 12.9219V10.9219H54.1887L54.1797 10.922L54.1977 12.9219ZM57.3266 12.9219V14.9219H59.3266V12.9219H57.3266ZM56.3188 8.59766L54.9955 10.0974L55.0042 10.105L56.3188 8.59766ZM49.4047 10.8125L49.3307 12.8111L51.4047 12.8879V10.8125H49.4047ZM48.7719 10.7891H46.7719V12.7164L48.6979 12.7877L48.7719 10.7891ZM56.7172 8.11719L55.418 9.63781L55.4266 9.64508L56.7172 8.11719ZM57.9594 11H59.9594V10.9811L59.959 10.9623L57.9594 11ZM58.2875 19.8945H60.2875V19.4762L60.1198 19.0929L58.2875 19.8945ZM58.2875 20V22H60.2875V20H58.2875ZM55.393 18.8164L54.3413 17.1152L54.3344 17.1195L55.393 18.8164ZM57.3266 16.5781L59.1523 17.3945L59.3266 17.0049V16.5781H57.3266ZM57.3266 13.5664H59.3266V11.5664H57.3266V13.5664ZM50.2367 14.6445L49.0388 13.043L49.0367 13.0445L50.2367 14.6445ZM59.4819 19.4432C59.404 19.1747 59.3266 18.6233 59.3266 17.6797H55.3266C55.3266 18.7517 55.4053 19.7472 55.64 20.5568L59.4819 19.4432ZM55.6232 16.6315C55.3191 17.1257 54.9118 17.5051 54.3622 17.7873L56.1894 21.3455C57.3742 20.7371 58.334 19.8587 59.0299 18.7279L55.6232 16.6315ZM54.3622 17.7873C53.8106 18.0705 53.1496 18.2344 52.3344 18.2344V22.2344C53.7067 22.2344 55.0066 21.9529 56.1894 21.3455L54.3622 17.7873ZM52.3344 18.2344C51.5354 18.2344 51.0965 18.0275 50.8201 17.7841L48.1768 20.7863C49.3379 21.8085 50.7896 22.2344 52.3344 22.2344V18.2344ZM50.8373 17.7994C50.579 17.5667 50.432 17.2903 50.432 16.7891H46.432C46.432 18.3347 46.996 19.7224 48.1596 20.7709L50.8373 17.7994ZM50.432 16.7891C50.432 16.3559 50.5673 16.0257 51.1089 15.666L48.8958 12.334C47.3436 13.3649 46.432 14.8941 46.432 16.7891H50.432ZM51.1117 15.6641C51.7429 15.2433 52.7213 14.9352 54.2156 14.9218L54.1797 10.922C52.1897 10.9398 50.3712 11.3504 48.8929 12.3359L51.1117 15.6641ZM54.1977 14.9219H57.3266V10.9219H54.1977V14.9219ZM59.3266 12.9219V11.0703H55.3266V12.9219H59.3266ZM59.3266 11.0703C59.3266 9.55154 58.8246 8.12931 57.6333 7.09033L55.0042 10.105C55.1566 10.2379 55.3266 10.4641 55.3266 11.0703H59.3266ZM57.642 7.09798C56.4887 6.08034 54.9935 5.71875 53.4594 5.71875V9.71875C54.4096 9.71875 54.8207 9.9431 54.9955 10.0973L57.642 7.09798ZM53.4594 5.71875C51.9474 5.71875 50.5315 6.11362 49.347 7.02294L51.7827 10.1958C52.1451 9.91763 52.6588 9.71875 53.4594 9.71875V5.71875ZM49.347 7.02294C48.145 7.94565 47.4047 9.23877 47.4047 10.8125H51.4047C51.4047 10.6362 51.4378 10.4606 51.7827 10.1958L49.347 7.02294ZM49.4787 8.81387L48.8459 8.79043L48.6979 12.7877L49.3307 12.8111L49.4787 8.81387ZM50.7719 10.7891C50.7719 10.448 50.88 10.1229 51.374 9.73106L48.8885 6.59707C47.57 7.64277 46.7719 9.06763 46.7719 10.7891H50.7719ZM51.374 9.73106C51.8796 9.33007 52.5341 9.08594 53.4594 9.08594V5.08594C51.7597 5.08594 50.1954 5.56056 48.8885 6.59707L51.374 9.73106ZM53.4594 9.08594C54.4921 9.08594 55.0705 9.34082 55.418 9.63778L58.0163 6.59659C56.7545 5.51855 55.161 5.08594 53.4594 5.08594V9.08594ZM55.4266 9.64508C55.7116 9.88575 55.945 10.2576 55.9597 11.0377L59.959 10.9623C59.9269 9.25805 59.3322 7.708 58.0077 6.58929L55.4266 9.64508ZM55.9594 11V17.0586H59.9594V11H55.9594ZM55.9594 17.0586C55.9594 17.7992 55.9881 18.4655 56.0547 19.0404C56.1179 19.587 56.2284 20.1777 56.4552 20.6962L60.1198 19.0929C60.1279 19.1114 60.0743 18.9795 60.0282 18.5807C59.9853 18.2103 59.9594 17.7087 59.9594 17.0586H55.9594ZM56.2875 19.8945V20H60.2875V19.8945H56.2875ZM58.2875 18H57.5609V22H58.2875V18ZM52.3344 21.6133C53.8268 21.6133 55.2283 21.2764 56.4516 20.5133L54.3344 17.1195C53.8545 17.4189 53.217 17.6133 52.3344 17.6133V21.6133ZM56.4446 20.5176C57.6597 19.7665 58.5663 18.7051 59.1523 17.3945L55.5008 15.7617C55.2274 16.3731 54.845 16.8038 54.3413 17.1152L56.4446 20.5176ZM59.3266 16.5781V13.5664H55.3266V16.5781H59.3266ZM57.3266 11.5664H54.3969V15.5664H57.3266V11.5664ZM54.3969 11.5664C52.3614 11.5664 50.482 11.9635 49.0388 13.043L51.4346 16.2461C51.9133 15.888 52.8074 15.5664 54.3969 15.5664V11.5664ZM49.0367 13.0445C47.819 13.9578 47.0648 15.2519 47.0648 16.8359H51.0648C51.0648 16.6699 51.0919 16.5031 51.4367 16.2445L49.0367 13.0445ZM47.0648 16.8359C47.0648 18.2246 47.6523 19.4178 48.675 20.311L51.3063 17.2984C51.0946 17.1134 51.0648 16.9941 51.0648 16.8359H47.0648ZM48.675 20.311C49.7119 21.2167 50.9841 21.6133 52.3344 21.6133V17.6133C51.794 17.6133 51.5037 17.4708 51.3063 17.2984L48.675 20.311ZM64.1797 10.1562L62.3794 9.28512L62.3764 9.29126L64.1797 10.1562ZM66.1484 7.89453L65.0787 6.20465L65.0717 6.20914L66.1484 7.89453ZM73.8594 10.0977L72.0618 10.9745L72.0676 10.9863L73.8594 10.0977ZM74.5859 13.3438H76.586L76.5859 13.3308L74.5859 13.3438ZM71.9258 19.4258L70.856 17.7359L70.849 17.7404L71.9258 19.4258ZM66.1719 19.4375L65.1062 21.13L65.1133 21.1344L66.1719 19.4375ZM64.2031 17.2109L62.4056 18.0878L62.4084 18.0936L64.2031 17.2109ZM63.4883 13.9766H61.4882L61.4883 13.9896L63.4883 13.9766ZM64.7422 16.8125L62.9315 17.6618L62.936 17.6715L62.9407 17.6811L64.7422 16.8125ZM66.4883 18.8633L65.3829 20.5301L65.391 20.5354L66.4883 18.8633ZM72.582 17.9727L71.0519 16.6847L71.0465 16.6912L72.582 17.9727ZM71.5625 8.46875L70.4451 10.1275L70.4551 10.1342L70.4652 10.1408L71.5625 8.46875ZM65.4883 13.4141C65.4883 12.4616 65.6681 11.6776 65.983 11.0212L62.3764 9.29126C61.7694 10.5568 61.4883 11.9446 61.4883 13.4141H65.4883ZM65.98 11.0274C66.3001 10.3658 66.7168 9.90477 67.2252 9.57992L65.0717 6.20914C63.8926 6.96241 62.9968 8.00917 62.3794 9.28513L65.98 11.0274ZM67.2182 9.5844C67.7296 9.26067 68.3151 9.08594 69.0312 9.08594V5.08594C67.6067 5.08594 66.2704 5.45027 65.0787 6.20466L67.2182 9.5844ZM69.0312 9.08594C69.7484 9.08594 70.3315 9.25745 70.8363 9.57062L72.945 6.17157C71.7623 5.43786 70.4391 5.08594 69.0312 5.08594V9.08594ZM70.8363 9.57062C71.335 9.88003 71.7451 10.3253 72.0618 10.9745L75.6569 9.22081C75.0361 7.94819 74.1337 6.90903 72.945 6.17157L70.8363 9.57062ZM72.0676 10.9863C72.3935 11.6434 72.5799 12.4202 72.586 13.3567L76.5859 13.3308C76.5764 11.861 76.2784 10.4738 75.6511 9.20906L72.0676 10.9863ZM72.5859 13.3438V13.9062H76.5859V13.3438H72.5859ZM72.5859 13.9062C72.5859 14.8686 72.4053 15.6561 72.0913 16.3108L75.6978 18.0408C76.3056 16.7736 76.5859 15.3814 76.5859 13.9062H72.5859ZM72.0913 16.3108C71.7829 16.9537 71.372 17.4093 70.856 17.7359L72.9955 21.1157C74.1827 20.3642 75.0843 19.3197 75.6978 18.0408L72.0913 16.3108ZM70.849 17.7404C70.3492 18.0597 69.7709 18.2344 69.0547 18.2344V22.2344C70.4791 22.2344 71.8148 21.87 73.0026 21.1112L70.849 17.7404ZM69.0547 18.2344C68.3327 18.2344 67.7432 18.0605 67.2305 17.7406L65.1133 21.1344C66.3037 21.877 67.636 22.2344 69.0547 22.2344V18.2344ZM67.2375 17.745C66.7277 17.424 66.3143 16.9718 65.9978 16.3283L62.4084 18.0936C63.0294 19.3563 63.9285 20.3885 65.1062 21.13L67.2375 17.745ZM66.0007 16.3341C65.678 15.6726 65.4943 14.895 65.4882 13.9635L61.4883 13.9896C61.4979 15.4488 61.7908 16.8274 62.4056 18.0878L66.0007 16.3341ZM65.4883 13.9766V13.4141H61.4883V13.9766H65.4883ZM62.1211 13.9062C62.1211 15.2301 62.3828 16.492 62.9315 17.6618L66.5529 15.9632C66.2734 15.3674 66.1211 14.6917 66.1211 13.9062H62.1211ZM62.9407 17.6811C63.504 18.8496 64.3143 19.8214 65.3829 20.5301L67.5936 17.1965C67.1779 16.9208 66.8241 16.5254 66.5437 15.9439L62.9407 17.6811ZM65.391 20.5354C66.4904 21.2569 67.7329 21.6016 69.0547 21.6016V17.6016C68.4546 17.6016 67.9861 17.454 67.5856 17.1912L65.391 20.5354ZM69.0547 21.6016C71.0781 21.6016 72.8218 20.8068 74.1176 19.2541L71.0465 16.6912C70.5297 17.3104 69.9219 17.6016 69.0547 17.6016V21.6016ZM74.1121 19.2606C75.3889 17.7438 75.9531 15.8587 75.9531 13.7773H71.9531C71.9531 15.1179 71.6033 16.0296 71.0519 16.6847L74.1121 19.2606ZM75.9531 13.7773V13.4141H71.9531V13.7773H75.9531ZM75.9531 13.4141C75.9531 12.0955 75.6833 10.8375 75.1248 9.6689L71.5158 11.3936C71.8011 11.9906 71.9531 12.6545 71.9531 13.4141H75.9531ZM75.1248 9.6689C74.5603 8.48758 73.7425 7.50714 72.6598 6.79665L70.4652 10.1408C70.8825 10.4147 71.2365 10.8093 71.5158 11.3936L75.1248 9.6689ZM72.6799 6.81004C71.5885 6.07473 70.3511 5.71875 69.0312 5.71875V9.71875C69.6021 9.71875 70.0522 9.86277 70.4451 10.1275L72.6799 6.81004ZM69.0312 5.71875C66.9976 5.71875 65.2514 6.52935 63.9531 8.09395L67.0313 10.6482C67.5611 10.0097 68.1743 9.71875 69.0312 9.71875V5.71875ZM63.9531 8.09395C62.6925 9.61308 62.1211 11.4753 62.1211 13.5312H66.1211C66.1211 12.2435 66.4637 11.3322 67.0313 10.6482L63.9531 8.09395ZM62.1211 13.5312V13.9062H66.1211V13.5312H62.1211ZM79.9625 18.9688L81.3767 20.383L81.3981 20.3615L81.4189 20.3395L79.9625 18.9688ZM80.8766 18.9688L79.4202 20.3395L79.4617 20.3836L79.5058 20.4251L80.8766 18.9688ZM80.8766 19.8828L79.5058 18.4264L79.4838 18.4472L79.4623 18.4686L80.8766 19.8828ZM81.775 19.4258C81.775 19.5724 81.7485 19.75 81.6722 19.9359C81.5957 20.1224 81.4876 20.2721 81.3767 20.383L78.5483 17.5545C78.0413 18.0615 77.775 18.7255 77.775 19.4258H81.775ZM81.4189 20.3395C81.3141 20.4508 81.1649 20.5676 80.9697 20.6527C80.7738 20.7381 80.5821 20.7695 80.4195 20.7695V16.7695C79.6791 16.7695 79.0026 17.0705 78.5061 17.598L81.4189 20.3395ZM80.4195 20.7695C80.257 20.7695 80.0652 20.7381 79.8694 20.6527C79.6742 20.5676 79.525 20.4508 79.4202 20.3395L82.333 17.598C81.8364 17.0705 81.16 16.7695 80.4195 16.7695V20.7695ZM79.5058 20.4251C79.3945 20.3203 79.2777 20.1711 79.1926 19.9759C79.1072 19.7801 79.0758 19.5884 79.0758 19.4258H83.0758C83.0758 18.6853 82.7748 18.0089 82.2473 17.5124L79.5058 20.4251ZM79.0758 19.4258C79.0758 19.2632 79.1072 19.0715 79.1926 18.8756C79.2777 18.6804 79.3945 18.5312 79.5058 18.4264L82.2473 21.3392C82.7748 20.8427 83.0758 20.1662 83.0758 19.4258H79.0758ZM79.4623 18.4686C79.5732 18.3577 79.7229 18.2496 79.9094 18.1731C80.0953 18.0968 80.2729 18.0703 80.4195 18.0703V22.0703C81.1199 22.0703 81.7838 21.804 82.2908 21.297L79.4623 18.4686ZM80.4195 18.0703C80.5662 18.0703 80.7438 18.0968 80.9296 18.1731C81.1161 18.2496 81.2658 18.3577 81.3767 18.4686L78.5483 21.297C79.0552 21.804 79.7192 22.0703 80.4195 22.0703V18.0703ZM81.3767 18.4686C81.4876 18.5795 81.5957 18.7292 81.6722 18.9157C81.7485 19.1016 81.775 19.2791 81.775 19.4258H77.775C77.775 20.1261 78.0413 20.7901 78.5483 21.297L81.3767 18.4686ZM88.3156 8.79688L89.9143 9.99864L89.9183 9.99336L88.3156 8.79688ZM94.3391 7.73047L93.321 9.45197L93.329 9.45669L94.3391 7.73047ZM96.1203 9.65234L94.3547 10.5918L98.1203 9.65234H96.1203ZM96.1203 2V0H94.1203V2H96.1203ZM96.7531 2H98.7531V0H96.7531V2ZM96.7531 20V22H98.7531V20H96.7531ZM96.1203 20H94.1203V22H96.1203V20ZM96.1203 17.9727H98.1203V10.7295L94.4037 16.9464L96.1203 17.9727ZM94.3508 19.6484L95.2747 21.4223L95.2819 21.4185L95.2891 21.4147L94.3508 19.6484ZM88.7609 18.043L87.1064 19.1666L87.1103 19.1723L88.7609 18.043ZM94.468 18.9102L95.5231 20.6092L95.5296 20.6052L95.536 20.6011L94.468 18.9102ZM96.1203 16.8594L97.9773 17.6022L98.1203 17.2445V16.8594H96.1203ZM96.1203 10.918H98.1203V10.5867L98.0135 10.273L96.1203 10.918ZM88.7727 9.25391L87.1418 8.09613L87.136 8.10447L88.7727 9.25391ZM89.0383 13.5312C89.0383 11.7616 89.4137 10.6646 89.9143 9.99864L86.7169 7.59511C85.5144 9.19482 85.0383 11.254 85.0383 13.5312H89.0383ZM89.9183 9.99336C90.3737 9.38326 90.9346 9.08594 91.8195 9.08594V5.08594C89.7358 5.08594 87.9606 5.92924 86.713 7.60039L89.9183 9.99336ZM91.8195 9.08594C92.4617 9.08594 92.941 9.22723 93.321 9.45195L95.3571 6.00898C94.284 5.37433 93.0836 5.08594 91.8195 5.08594V9.08594ZM93.329 9.45669C93.7024 9.67513 94.0518 10.0226 94.3547 10.5918L97.8859 8.71285C97.2825 7.57892 96.4445 6.64518 95.3491 6.00424L93.329 9.45669ZM98.1203 9.65234V2H94.1203V9.65234H98.1203ZM96.1203 4H96.7531V0H96.1203V4ZM94.7531 2V20H98.7531V2H94.7531ZM96.7531 18H96.1203V22H96.7531V18ZM98.1203 20V17.9727H94.1203V20H98.1203ZM94.4037 16.9464C94.1639 17.3475 93.8452 17.6523 93.4125 17.8822L95.2891 21.4147C96.3563 20.8477 97.2174 20.0353 97.8369 18.9989L94.4037 16.9464ZM93.4269 17.8746C92.9968 18.0986 92.4689 18.2344 91.7961 18.2344V22.2344C93.0295 22.2344 94.2048 21.9795 95.2747 21.4223L93.4269 17.8746ZM91.7961 18.2344C90.9514 18.2344 90.3966 17.9456 89.9298 17.3074L86.7014 19.6691C87.9377 21.3591 89.7033 22.2344 91.7961 22.2344V18.2344ZM89.9298 17.3074C89.4128 16.6007 89.0383 15.4703 89.0383 13.6953H85.0383C85.0383 15.9828 85.5153 18.0478 86.7014 19.6691L89.9298 17.3074ZM89.0383 13.6953V13.5312H85.0383V13.6953H89.0383ZM85.6945 13.7773C85.6945 15.8134 86.0941 17.6759 87.1064 19.1666L90.4155 16.9194C90.0059 16.3163 89.6945 15.3351 89.6945 13.7773H85.6945ZM87.1103 19.1723C88.2099 20.7794 89.8481 21.6016 91.7844 21.6016V17.6016C91.1113 17.6016 90.7338 17.3846 90.4116 16.9136L87.1103 19.1723ZM91.7844 21.6016C93.1296 21.6016 94.4063 21.3028 95.5231 20.6092L93.4128 17.2112C93.0452 17.4394 92.5329 17.6016 91.7844 17.6016V21.6016ZM95.536 20.6011C96.671 19.8843 97.4782 18.8498 97.9773 17.6022L94.2634 16.1166C94.0437 16.6658 93.7494 16.9985 93.4 17.2192L95.536 20.6011ZM98.1203 16.8594V10.918H94.1203V16.8594H98.1203ZM98.0135 10.273C97.5533 8.92219 96.8091 7.74332 95.6889 6.91229C94.5607 6.07537 93.2229 5.71875 91.8078 5.71875V9.71875C92.5412 9.71875 92.9963 9.89533 93.3057 10.1248C93.623 10.3602 93.9608 10.7809 94.2271 11.5629L98.0135 10.273ZM91.8078 5.71875C89.8886 5.71875 88.258 6.52385 87.1418 8.09615L90.4035 10.4117C90.7404 9.93708 91.1333 9.71875 91.8078 9.71875V5.71875ZM87.136 8.10447C86.0781 9.61072 85.6945 11.5984 85.6945 13.7773H89.6945C89.6945 11.9719 90.0297 10.944 90.4094 10.4033L87.136 8.10447ZM104.907 19.4141L103.815 21.0899L103.824 21.0957L103.833 21.1014L104.907 19.4141ZM112.313 13.2383V15.2383H114.313V13.2383H112.313ZM102.809 13.2383V11.2383H100.809V13.2383H102.809ZM103.454 16.8008L101.656 17.6761L101.66 17.6857L101.665 17.6952L103.454 16.8008ZM105.247 18.8633L104.145 20.5327L104.153 20.5378L105.247 18.8633ZM109.899 19.1914L110.755 20.9989L110.765 20.9941L109.899 19.1914ZM111.493 17.8672L112.651 16.2368L111.089 15.1265L109.913 16.6407L111.493 17.8672ZM111.938 18.1836L113.583 19.321L114.706 17.6969L113.097 16.5532L111.938 18.1836ZM104.356 9.10156L105.813 10.4715L105.819 10.4653L104.356 9.10156ZM102.845 12.6055L100.855 12.3978L100.625 14.6055H102.845V12.6055ZM111.68 12.6055V14.6055H113.68V12.6055H111.68ZM111.13 10.0625L109.33 10.9341L109.335 10.9456L109.341 10.9569L111.13 10.0625ZM109.63 8.33984L108.535 10.0134L108.547 10.0212L108.559 10.0289L109.63 8.33984ZM107.731 18.2344C107.086 18.2344 106.518 18.0684 105.981 17.7267L103.833 21.1014C105.015 21.8535 106.329 22.2344 107.731 22.2344V18.2344ZM105.999 17.7382C105.461 17.3877 105.024 16.9053 104.689 16.2404L101.117 18.0409C101.751 19.2978 102.65 20.331 103.815 21.0899L105.999 17.7382ZM104.689 16.2404C104.358 15.5829 104.177 14.829 104.177 13.9414H100.177C100.177 15.3976 100.48 16.7764 101.117 18.0409L104.689 16.2404ZM104.177 13.9414V13.4141H100.177V13.9414H104.177ZM104.177 13.4141C104.177 12.5168 104.354 11.7417 104.683 11.0569L101.077 9.32594C100.468 10.5942 100.177 11.9675 100.177 13.4141H104.177ZM104.683 11.0569C105.012 10.371 105.43 9.89877 105.923 9.57035L103.704 6.24215C102.556 7.00748 101.685 8.05865 101.077 9.32594L104.683 11.0569ZM105.923 9.57035C106.421 9.23838 106.93 9.08594 107.497 9.08594V5.08594C106.126 5.08594 104.847 5.48037 103.704 6.24215L105.923 9.57035ZM107.497 9.08594C108.371 9.08594 108.974 9.36875 109.473 9.92854L112.459 7.26678C111.161 5.81094 109.451 5.08594 107.497 5.08594V9.08594ZM109.473 9.92854C109.978 10.495 110.313 11.3098 110.313 12.5703H114.313C114.313 10.5495 113.75 8.71592 112.459 7.26678L109.473 9.92854ZM110.313 12.5703V13.2383H114.313V12.5703H110.313ZM112.313 11.2383H102.809V15.2383H112.313V11.2383ZM100.809 13.2383V13.9297H104.809V13.2383H100.809ZM100.809 13.9297C100.809 15.2485 101.087 16.5068 101.656 17.6761L105.252 15.9255C104.962 15.3291 104.809 14.6733 104.809 13.9297H100.809ZM101.665 17.6952C102.247 18.8592 103.072 19.8243 104.145 20.5327L106.348 17.1939C105.906 16.9023 105.536 16.4923 105.243 15.9064L101.665 17.6952ZM104.153 20.5378C105.235 21.2442 106.441 21.6133 107.731 21.6133V17.6133C107.24 17.6133 106.79 17.4824 106.34 17.1887L104.153 20.5378ZM107.731 21.6133C108.795 21.6133 109.827 21.4386 110.755 20.9989L109.043 17.3839C108.784 17.5067 108.371 17.6133 107.731 17.6133V21.6133ZM110.765 20.9941C111.68 20.5547 112.446 19.901 113.073 19.0936L109.913 16.6407C109.618 17.0209 109.322 17.25 109.033 17.3887L110.765 20.9941ZM110.335 19.4975L110.78 19.814L113.097 16.5532L112.651 16.2368L110.335 19.4975ZM110.293 17.0462C109.77 17.8025 109.025 18.2344 107.731 18.2344V22.2344C110.156 22.2344 112.216 21.299 113.583 19.321L110.293 17.0462ZM107.497 5.71875C105.695 5.71875 104.122 6.4198 102.893 7.73781L105.819 10.4653C106.309 9.93958 106.83 9.71875 107.497 9.71875V5.71875ZM102.899 7.73161C101.699 9.00807 101.043 10.6043 100.855 12.3978L104.834 12.8131C104.943 11.7629 105.295 11.0232 105.813 10.4715L102.899 7.73161ZM102.845 14.6055H111.68V10.6055H102.845V14.6055ZM113.68 12.6055V12.4531H109.68V12.6055H113.68ZM113.68 12.4531C113.68 11.2982 113.431 10.1932 112.919 9.16807L109.341 10.9569C109.563 11.4005 109.68 11.8893 109.68 12.4531H113.68ZM112.93 9.19088C112.423 8.14396 111.683 7.27367 110.701 6.65083L108.559 10.0289C108.858 10.2185 109.118 10.4967 109.33 10.9341L112.93 9.19088ZM110.725 6.66627C109.752 6.02968 108.657 5.71875 107.497 5.71875V9.71875C107.915 9.71875 108.242 9.82189 108.535 10.0134L110.725 6.66627ZM121.229 18.9922L119.366 19.7198L121.229 24.4897L123.092 19.7198L121.229 18.9922ZM125.787 7.32031V5.32031H124.421L123.925 6.59271L125.787 7.32031ZM126.467 7.32031L128.331 8.04554L129.391 5.32031H126.467V7.32031ZM121.534 20V22H122.901L123.397 20.7252L121.534 20ZM120.912 20L119.048 20.7237L119.543 22H120.912V20ZM115.991 7.32031V5.32031H113.069L114.126 8.04404L115.991 7.32031ZM116.67 7.32031L118.533 6.59271L118.036 5.32031H116.67V7.32031ZM123.092 19.7198L127.65 8.04791L123.925 6.59271L119.366 18.2646L123.092 19.7198ZM125.787 9.32031H126.467V5.32031H125.787V9.32031ZM124.603 6.59509L119.67 19.2748L123.397 20.7252L128.331 8.04554L124.603 6.59509ZM121.534 18H120.912V22H121.534V18ZM122.777 19.2763L117.855 6.59658L114.126 8.04404L119.048 20.7237L122.777 19.2763ZM115.991 9.32031H116.67V5.32031H115.991V9.32031ZM114.807 8.04791L119.366 19.7198L123.092 18.2646L118.533 6.59271L114.807 8.04791Z" fill="#8B4E4E"/>
</svg>
